<svg width="16" height="16" viewBox="0 0 16 16" fill="none" xmlns="http://www.w3.org/2000/svg">
<g id="User-md" clip-path="url(#clip0_136_7216)">
<path id="Vector" fill-rule="evenodd" clip-rule="evenodd" d="M8.25982 7.98182H7.73982C5.95082 7.98182 4.49982 9.43282 4.49982 11.2218V11.9818H11.4998V11.2218C11.4998 9.43282 10.0488 7.98182 8.25982 7.98182ZM7.99982 14.4998C4.41582 14.4998 1.49982 11.5848 1.49982 7.99982C1.49982 4.41582 4.41582 1.49982 7.99982 1.49982C11.5838 1.49982 14.4998 4.41582 14.4998 7.99982C14.4998 11.5848 11.5838 14.4998 7.99982 14.4998ZM7.99982 -0.000183105C3.58182 -0.000183105 -0.000183105 3.58182 -0.000183105 7.99982C-0.000183105 12.4188 3.58182 15.9998 7.99982 15.9998C12.4178 15.9998 15.9998 12.4188 15.9998 7.99982C15.9998 3.58182 12.4178 -0.000183105 7.99982 -0.000183105ZM7.99982 7.48182C9.24482 7.48182 10.2498 6.47682 10.2498 5.23182C10.2498 3.98682 9.24482 2.98182 7.99982 2.98182C6.75482 2.98182 5.74982 3.98682 5.74982 5.23182C5.74982 6.47682 6.75482 7.48182 7.99982 7.48182Z" fill="#F7FEFE"/>
</g>
<defs>
<clipPath id="clip0_136_7216">
<rect width="16" height="16" fill="white"/>
</clipPath>
</defs>
</svg>
